HIERARCHY
ROOT Hips
{
    OFFSET 0.000000 0.000000 0.000000
    CHANNELS 6 Xposition Yposition Zposition Zrotation Xrotation Yrotation
    JOINT Spine
    {
        OFFSET 0.000001 7.292995 0.000000
        CHANNELS 3 Zrotation Xrotation Yrotation
        JOINT Spine1
        {
            OFFSET -0.000000 20.255388 0.000001
            CHANNELS 3 Zrotation Xrotation Yrotation
            JOINT Neck
            {
                OFFSET 0.000001 20.786594 0.000000
                CHANNELS 3 Zrotation Xrotation Yrotation
                JOINT Head
                {
                    OFFSET 0.000003 12.530788 1.776080
                    CHANNELS 3 Zrotation Xrotation Yrotation
                    End Site
                    {
                        OFFSET 0.000000 17.760757 0.000000
                    }
                }
            }
            JOINT LeftShoulder
            {
                OFFSET 3.550532 15.465697 -0.908801
                CHANNELS 3 Zrotation Xrotation Yrotation
                JOINT LeftArm
                {
                    OFFSET 12.513301 -0.000005 0.000001
                    CHANNELS 3 Zrotation Xrotation Yrotation
                    JOINT LeftForeArm
                    {
                        OFFSET 24.225992 0.000005 0.000000
                        CHANNELS 3 Zrotation Xrotation Yrotation
                        JOINT LeftHand
                        {
                            OFFSET 20.711395 -0.000004 0.000000
                            CHANNELS 3 Zrotation Xrotation Yrotation
                            JOINT LeftHandThumb1
                            {
                                OFFSET 2.121964 -2.411326 3.375861
                                CHANNELS 3 Zrotation Xrotation Yrotation
                                JOINT LeftHandThumb2
                                {
                                    OFFSET 2.803212 -0.000001 -0.000002
                                    CHANNELS 3 Zrotation Xrotation Yrotation
                                    JOINT LeftHandThumb3
                                    {
                                        OFFSET 2.395929 0.000000 0.000000
                                        CHANNELS 3 Zrotation Xrotation Yrotation
                                        End Site
                                        {
                                            OFFSET 2.127676 0.000000 0.000000
                                        }
                                    }
                                }
                            }
                            JOINT LeftHandIndex1
                            {
                                OFFSET 8.680776 0.000004 3.375861
                                CHANNELS 3 Zrotation Xrotation Yrotation
                                JOINT LeftHandIndex2
                                {
                                    OFFSET 4.218180 -0.000002 0.000001
                                    CHANNELS 3 Zrotation Xrotation Yrotation
                                    JOINT LeftHandIndex3
                                    {
                                        OFFSET 2.109090 0.000001 -0.000000
                                        CHANNELS 3 Zrotation Xrotation Yrotation
                                        End Site
                                        {
                                            OFFSET 1.872952 0.000000 0.000000
                                        }
                                    }
                                }
                            }
                            JOINT LeftHandMiddle1
                            {
                                OFFSET 8.680775 0.000001 1.118862
                                CHANNELS 3 Zrotation Xrotation Yrotation
                                JOINT LeftHandMiddle2
                                {
                                    OFFSET 4.640000 0.000002 -0.000000
                                    CHANNELS 3 Zrotation Xrotation Yrotation
                                    JOINT LeftHandMiddle3
                                    {
                                        OFFSET 2.530906 0.000005 0.000000
                                        CHANNELS 3 Zrotation Xrotation Yrotation
                                        End Site
                                        {
                                            OFFSET 2.247544 0.000000 0.000000
                                        }
                                    }
                                }
                            }
                            JOINT LeftHandRing1
                            {
                                OFFSET 8.198514 -0.000004 -1.118859
                                CHANNELS 3 Zrotation Xrotation Yrotation
                                JOINT LeftHandRing2
                                {
                                    OFFSET 4.218182 -0.000003 -0.000001
                                    CHANNELS 3 Zrotation Xrotation Yrotation
                                    JOINT LeftHandRing3
                                    {
                                        OFFSET 2.109086 0.000004 0.000001
                                        CHANNELS 3 Zrotation Xrotation Yrotation
                                        End Site
                                        {
                                            OFFSET 1.872952 0.000000 0.000000
                                        }
                                    }
                                }
                            }
                            JOINT LeftHandPinky1
                            {
                                OFFSET 7.716242 0.000005 -3.375859
                                CHANNELS 3 Zrotation Xrotation Yrotation
                                JOINT LeftHandPinky2
                                {
                                    OFFSET 3.374535 0.000004 0.000002
                                    CHANNELS 3 Zrotation Xrotation Yrotation
                                    JOINT LeftHandPinky3
                                    {
                                        OFFSET 1.687275 0.000002 -0.000001
                                        CHANNELS 3 Zrotation Xrotation Yrotation
                                        End Site
                                        {
                                            OFFSET 1.498360 0.000000 0.000000
                                        }
                                    }
                                }
                            }
                        }
                    }
                }
            }
            JOINT RightShoulder
            {
                OFFSET -3.550531 15.465694 -0.908802
                CHANNELS 3 Zrotation Xrotation Yrotation
                JOINT RightArm
                {
                    OFFSET -12.513298 -0.000004 0.000001
                    CHANNELS 3 Zrotation Xrotation Yrotation
                    JOINT RightForeArm
                    {
                        OFFSET -24.225996 -0.000002 -0.000000
                        CHANNELS 3 Zrotation Xrotation Yrotation
                        JOINT RightHand
                        {
                            OFFSET -20.711401 0.000005 0.000001
                            CHANNELS 3 Zrotation Xrotation Yrotation
                            JOINT RightHandThumb1
                            {
                                OFFSET -2.121970 -2.411334 3.375861
                                CHANNELS 3 Zrotation Xrotation Yrotation
                                JOINT RightHandThumb2
                                {
                                    OFFSET -2.803210 0.000003 -0.000004
                                    CHANNELS 3 Zrotation Xrotation Yrotation
                                    JOINT RightHandThumb3
                                    {
                                        OFFSET -2.395930 -0.000001 0.000002
                                        CHANNELS 3 Zrotation Xrotation Yrotation
                                        End Site
                                        {
                                            OFFSET -2.127676 0.000000 0.000000
                                        }
                                    }
                                }
                            }
                            JOINT RightHandIndex1
                            {
                                OFFSET -8.680779 0.000001 3.375860
                                CHANNELS 3 Zrotation Xrotation Yrotation
                                JOINT RightHandIndex2
                                {
                                    OFFSET -4.218180 0.000000 -0.000000
                                    CHANNELS 3 Zrotation Xrotation Yrotation
                                    JOINT RightHandIndex3
                                    {
                                        OFFSET -2.109090 0.000001 -0.000000
                                        CHANNELS 3 Zrotation Xrotation Yrotation
                                        End Site
                                        {
                                            OFFSET -1.872952 0.000000 0.000000
                                        }
                                    }
                                }
                            }
                            JOINT RightHandMiddle1
                            {
                                OFFSET -8.680780 0.000001 1.118860
                                CHANNELS 3 Zrotation Xrotation Yrotation
                                JOINT RightHandMiddle2
                                {
                                    OFFSET -4.640000 -0.000002 0.000001
                                    CHANNELS 3 Zrotation Xrotation Yrotation
                                    JOINT RightHandMiddle3
                                    {
                                        OFFSET -2.530910 0.000001 -0.000000
                                        CHANNELS 3 Zrotation Xrotation Yrotation
                                        End Site
                                        {
                                            OFFSET -2.247544 0.000000 0.000000
                                        }
                                    }
                                }
                            }
                            JOINT RightHandRing1
                            {
                                OFFSET -8.198519 0.000005 -1.118860
                                CHANNELS 3 Zrotation Xrotation Yrotation
                                JOINT RightHandRing2
                                {
                                    OFFSET -4.218180 -0.000006 0.000000
                                    CHANNELS 3 Zrotation Xrotation Yrotation
                                    JOINT RightHandRing3
                                    {
                                        OFFSET -2.109090 0.000001 -0.000000
                                        CHANNELS 3 Zrotation Xrotation Yrotation
                                        End Site
                                        {
                                            OFFSET -1.872952 0.000000 0.000000
                                        }
                                    }
                                }
                            }
                            JOINT RightHandPinky1
                            {
                                OFFSET -7.716248 -0.000002 -3.375859
                                CHANNELS 3 Zrotation Xrotation Yrotation
                                JOINT RightHandPinky2
                                {
                                    OFFSET -3.374540 0.000000 0.000000
                                    CHANNELS 3 Zrotation Xrotation Yrotation
                                    JOINT RightHandPinky3
                                    {
                                        OFFSET -1.687270 0.000004 0.000001
                                        CHANNELS 3 Zrotation Xrotation Yrotation
                                        End Site
                                        {
                                            OFFSET -1.498360 0.000000 0.000000
                                        }
                                    }
                                }
                            }
                        }
                    }
                }
            }
        }
    }
    JOINT LeftUpLeg
    {
        OFFSET 8.880376 -0.000000 -0.000000
        CHANNELS 3 Zrotation Xrotation Yrotation
        JOINT LeftLeg
        {
            OFFSET -0.000001 -40.387405 -0.000001
            CHANNELS 3 Zrotation Xrotation Yrotation
            JOINT LeftFoot
            {
                OFFSET -0.000001 -36.911297 -0.000001
                CHANNELS 3 Zrotation Xrotation Yrotation
                JOINT LeftToeBase
                {
                    OFFSET -0.000002 -5.772240 13.320604
                    CHANNELS 3 Zrotation Xrotation Yrotation
                    End Site
                    {
                        OFFSET 0.000000 0.000000 3.552151
                    }
                }
            }
        }
    }
    JOINT RightUpLeg
    {
        OFFSET -8.880376 0.000000 0.000000
        CHANNELS 3 Zrotation Xrotation Yrotation
        JOINT RightLeg
        {
            OFFSET -0.000001 -40.387390 0.000000
            CHANNELS 3 Zrotation Xrotation Yrotation
            JOINT RightFoot
            {
                OFFSET 0.000002 -36.911297 -0.000001
                CHANNELS 3 Zrotation Xrotation Yrotation
                JOINT RightToeBase
                {
                    OFFSET 0.000001 -5.772238 13.320600
                    CHANNELS 3 Zrotation Xrotation Yrotation
                    End Site
                    {
                        OFFSET 0.000000 0.000000 3.552151
                    }
                }
            }
        }
    }
}
MOTION
Frames: 4
Frame Time: 0.013889
53.139336    84.055344    28.610207    -8.993290    6.085426    8.408102    1.169776    -14.712450    4.596749    -2.216436    12.537898    4.821672    2.956589    -21.663488    -12.783561    4.450584    2.531855    -15.017598    2.231132    5.247845    -6.416354    -14.630313    52.905216    -31.003906    -5.355064    -1.588510    -73.525284    -16.227514    45.981323    6.412970    19.836643    41.927807    -36.526768    -10.450201    0.628215    23.309479    -0.000000    0.000000    -0.000000    6.022318    17.906969    -2.399309    5.729576    0.000000    0.000005    5.729579    0.000003    -0.000005    5.800515    8.954671    -1.176593    5.729576    -0.000003    0.000004    5.729579    -0.000000    -0.000003    5.800513    -8.954673    -4.823685    5.729581    -0.000003    -0.000001    5.729581    0.000000    0.000003    6.022322    -17.906975    -9.601255    5.729581    -0.000003    0.000002    5.729577    0.000003    -0.000004    2.708654    -3.943241    11.943074    49.390873    20.375484    56.659439    -25.601330    -14.676988    117.869507    -62.771767    8.437525    24.140923    -37.240540    29.176752    46.913734    12.782472    -0.376943    -23.314594    -0.000000    0.000000    -0.000000    -6.022316    17.906977    -0.300249    -5.729579    0.000001    -0.000002    -5.729576    -0.000001    -0.000000    -5.800513    8.954669    -0.173182    -5.729579    0.000002    -0.000001    -5.729579    -0.000001    -0.000000    -5.800520    -8.954676    3.957221    -5.729576    0.000001    -0.000001    -5.729576    -0.000001    -0.000001    -6.022321    -17.906973    7.868318    -5.729579    -0.000003    0.000003    -5.729573    0.000001    -0.000002    10.093372    -11.295821    5.190449    0.000000    22.478973    -0.000001    -2.737523    -11.025475    -8.348969    0.000000    -0.816761    -0.000000    3.152521    -28.447742    -9.922062    -0.000000    53.355640    0.000000    6.123187    2.022310    3.036485    -0.000000    -3.080507    0.000000    
53.285526    83.986626    28.576193    -9.056417    6.083415    8.180164    1.235908    -14.693470    4.861592    -2.474266    12.563149    5.129052    2.391035    -21.545288    -13.080302    4.396765    2.539057    -15.108659    1.978215    5.204742    -6.437083    -14.780922    52.637306    -30.740746    -5.303435    -1.586520    -73.392456    -16.095572    46.011261    6.252614    19.786663    41.973335    -36.585136    -10.446859    0.629660    23.309446    -0.000000    0.000000    -0.000000    6.022316    17.906973    -2.385562    5.729579    -0.000002    0.000003    5.729574    -0.000002    0.000003    5.800515    8.954670    -1.169718    5.729582    -0.000002    0.000003    5.729577    0.000002    -0.000001    5.800512    -8.954676    -4.823684    5.729579    0.000000    0.000002    5.729578    -0.000000    -0.000002    6.022320    -17.906973    -9.601258    5.729576    0.000000    0.000002    5.729577    -0.000000    -0.000006    2.425262    -3.986722    12.043788    49.210331    20.749868    56.786678    -25.696955    -14.502041    117.492195    -62.613766    8.466551    24.311180    -37.460407    28.996389    46.925446    12.714845    -0.347801    -23.315020    -0.000000    0.000000    -0.000000    -6.022312    17.906975    -0.055499    -5.729579    0.000001    -0.000001    -5.729576    -0.000001    -0.000000    -5.800514    8.954670    -0.050807    -5.729582    0.000002    -0.000001    -5.729569    -0.000001    -0.000001    -5.800510    -8.954672    3.994366    -5.729576    0.000002    -0.000001    -5.729576    -0.000003    0.000001    -6.022316    -17.906977    7.942615    -5.729576    0.000001    -0.000002    -5.729579    0.000002    0.000000    10.030544    -11.430525    5.008692    -0.000001    22.875868    0.000001    -2.534305    -11.351754    -8.026875    -0.000000    -0.482759    -0.000001    3.917373    -28.745653    -9.259521    0.000001    53.534695    -0.000001    5.962980    2.809126    2.694554    0.000001    -2.749795    0.000000    
53.422314    83.916328    28.542454    -9.095311    6.071659    7.940441    1.293588    -14.652441    5.101264    -2.720062    12.577732    5.410534    1.808893    -21.406805    -13.362907    4.316976    2.588561    -15.178771    1.731280    5.158851    -6.450692    -15.057661    52.360344    -30.375235    -5.366535    -1.619349    -73.257370    -15.983499    46.034992    6.121318    19.711861    42.026276    -36.594250    -10.454129    0.626528    23.309523    -0.000000    0.000000    -0.000000    6.022320    17.906973    -2.362164    5.729577    0.000003    -0.000003    5.729579    -0.000002    0.000004    5.800517    8.954674    -1.158029    5.729572    -0.000005    0.000003    5.729576    0.000003    -0.000003    5.800516    -8.954670    -4.823688    5.729576    -0.000003    -0.000001    5.729580    0.000000    0.000006    6.022317    -17.906971    -9.601266    5.729578    0.000003    0.000001    5.729580    0.000004    0.000008    2.139120    -4.037577    12.153557    49.022224    21.148394    56.921860    -25.770329    -14.322505    117.130905    -62.463467    8.549850    24.388510    -37.658192    28.845064    46.896267    12.660048    -0.324184    -23.315353    -0.000000    0.000000    -0.000000    -6.022319    17.906973    0.179548    -5.729576    0.000001    0.000002    -5.729580    0.000001    0.000002    -5.800513    8.954672    0.066714    -5.729576    -0.000001    0.000001    -5.729572    -0.000000    -0.000001    -5.800513    -8.954671    4.037024    -5.729576    0.000001    -0.000001    -5.729583    -0.000001    0.000002    -6.022319    -17.906977    8.027932    -5.729570    -0.000001    -0.000001    -5.729576    -0.000001    0.000002    9.966258    -11.591387    4.940624    0.000000    23.333553    -0.000001    -2.325180    -11.621219    -7.829223    0.000000    -0.213893    0.000000    4.634045    -28.978247    -8.556664    -0.000001    53.615810    0.000001    5.691920    3.902269    2.191091    -0.000000    -2.285172    -0.000000    
53.603554    83.818535    28.512999    -9.125534    6.037316    7.590106    1.367014    -14.610210    5.404399    -3.042164    12.611744    5.769698    1.091740    -21.236032    -13.672182    4.226657    2.687185    -15.229046    1.401441    5.121583    -6.454944    -15.493699    52.028637    -29.812696    -5.400897    -1.640369    -73.154617    -16.086342    46.011017    6.249087    19.642628    42.089073    -36.671291    -10.454957    0.626172    23.309536    -0.000000    0.000000    -0.000000    6.022320    17.906975    -2.339354    5.729583    0.000001    -0.000008    5.729573    -0.000002    0.000003    5.800516    8.954675    -1.146621    5.729578    0.000003    -0.000003    5.729575    0.000002    0.000001    5.800516    -8.954670    -4.823698    5.729579    0.000000    0.000002    5.729578    0.000000    0.000003    6.022320    -17.906977    -9.601261    5.729576    -0.000000    -0.000001    5.729580    -0.000000    -0.000002    1.765299    -4.092590    12.292674    48.807838    21.707729    57.110123    -25.800804    -14.074018    116.703033    -62.339581    8.553916    24.465599    -37.887783    28.669121    46.865654    12.600368    -0.298463    -23.315670    -0.000000    0.000000    -0.000000    -6.022317    17.906977    0.461538    -5.729580    0.000001    0.000001    -5.729572    -0.000001    -0.000000    -5.800508    8.954670    0.207710    -5.729583    0.000001    0.000001    -5.729573    -0.000001    -0.000001    -5.800513    -8.954674    4.100467    -5.729580    0.000004    -0.000001    -5.729577    -0.000002    0.000001    -6.022325    -17.906981    8.154816    -5.729576    0.000002    -0.000001    -5.729568    -0.000001    -0.000001    9.854468    -11.819903    4.907938    -0.000000    24.044689    -0.000000    -1.979234    -12.047363    -7.535736    0.000000    0.031333    -0.000000    5.523501    -29.224327    -7.570655    0.000001    53.621548    -0.000001    5.014431    6.152657    1.305427    0.000001    -1.233119    -0.000000    
